<svg xmlns="http://www.w3.org/2000/svg" width="90.1mm" height="87.609" viewBox="0 0 255.4 65.72"><defs><style>.a{fill:#fff}</style></defs><title>partner</title><path class="a" d="M0 25.21v30.4h19l1.1-5.1h-14v-7.7h11.6l1-5.5H6.1v-7.1H19l1.1-5H0zM194.2 42.31a16.66 16.66 0 0 1 3.5.7 7.42 7.42 0 0 1 1.9 1.5 5 5 0 0 1 1 1.9 7.61 7.61 0 0 1 .3 2.1v.5a6.31 6.31 0 0 1-.7 3.2 6.74 6.74 0 0 1-1.9 2.2 11.73 11.73 0 0 1-3.6 1.3 16.11 16.11 0 0 1-3.9.4 25.31 25.31 0 0 1-3.8-.3 30.1 30.1 0 0 1-4.1-.9l1-4.2a29.81 29.81 0 0 0 3.6.8 17.74 17.74 0 0 0 3.2.2 14.84 14.84 0 0 0 2.3-.1 3.75 3.75 0 0 0 1.4-.5 2.28 2.28 0 0 0 .8-.9 2.48 2.48 0 0 0 .1-.9 2.77 2.77 0 0 0-.5-1.6 3 3 0 0 0-2.1-.8l-3.2-.4c-2.2-.3-4.5-.9-5.6-1.9a5.65 5.65 0 0 1-1.6-4.2v-.4a5.83 5.83 0 0 1 2.5-5.1 15.5 15.5 0 0 1 7.8-1.8 27.66 27.66 0 0 1 4.2.3 16 16 0 0 1 3 .8l-1 4c-1-.3-2-.4-3-.6s-2-.2-3-.2c-2 0-3.2.1-3.9.5a2 2 0 0 0-.3 3.2 4.32 4.32 0 0 0 2.2.7zM173.9 33.41a20.53 20.53 0 0 0-5.1-.5 21.21 21.21 0 0 0-5.2.6 8.5 8.5 0 0 0-3.5 1.9 8.34 8.34 0 0 0-2.2 3.3 13.37 13.37 0 0 0-.8 4.8v1.5c0 3.6.7 6.3 2.2 8a9.62 9.62 0 0 0 7.1 2.8c3 0 4.9-.8 6.4-2.3v1c0 2.4-.4 3.8-1.4 5s-2.8 1.7-5 1.6a32.25 32.25 0 0 1-3.7-.4 33.83 33.83 0 0 1-3.4-.8l-1 4.5a20.69 20.69 0 0 0 4.3 1 36.83 36.83 0 0 0 4.9.3c3.7.1 6.5-1 8.4-3s2.8-4.8 2.8-8.5v-19a25 25 0 0 0-4.8-1.8m-1.1 12.1a6.61 6.61 0 0 1-1.2 4.4 4.67 4.67 0 0 1-3.7 1.4 5.46 5.46 0 0 1-2.4-.4 3 3 0 0 1-1.4-1.3 5.91 5.91 0 0 1-.7-2 21.58 21.58 0 0 1-.2-2.8v-1.5c0-2.3.4-3.9 1.3-4.9a5.15 5.15 0 0 1 4.1-1.5 16.35 16.35 0 0 1 2.2.2 5.36 5.36 0 0 1 1.9.7l.1 7.7zM132.8 55.61v-22.2h5.4l.3 2.4a6.89 6.89 0 0 1 2.8-2.2 9.37 9.37 0 0 1 3.9-.7 12.3 12.3 0 0 1 3.5.5 6.77 6.77 0 0 1 2.5 1.4 6.14 6.14 0 0 1 1.7 2.4 9 9 0 0 1 .6 3.4v15h-5.9v-13.5c0-1.8-.3-3.1-1-3.8s-1.6-1.1-3.2-1.1a4.66 4.66 0 0 0-3.7 1.9c-.8 1.1-.9 3.2-.9 5.2v11.4l-6-.1zM62.5 38.41c-.3-.1-.8-.2-1.2-.3a7.57 7.57 0 0 0-1.5-.1 5.15 5.15 0 0 0-4.1 1.5c-.8 1-1.1 2-1.1 4.1v12.1h-6.4v-22.3H54l.3 2.6a6.82 6.82 0 0 1 2.6-2.2 8.9 8.9 0 0 1 3.8-.7 6.62 6.62 0 0 1 1.5.1 10.26 10.26 0 0 1 1.4.4zM44.3 33.41v22.2h-5.4l-.3-2.4a6.89 6.89 0 0 1-2.8 2.2 9.37 9.37 0 0 1-3.9.7 12.3 12.3 0 0 1-3.5-.5 6.77 6.77 0 0 1-2.5-1.4 6.14 6.14 0 0 1-1.7-2.4 9 9 0 0 1-.6-3.4v-15h5.9v13.6c0 1.8.3 3.1 1 3.8s1.6 1.1 3.2 1.1a4.66 4.66 0 0 0 3.7-1.9c.8-1.1.9-3.2.9-5.2v-11.4zM125.7 24.51a3.67 3.67 0 0 1 2.6.8 3.42 3.42 0 0 1 0 4.4 3.68 3.68 0 0 1-2.6.7 4.15 4.15 0 0 1-2.7-.7 3.42 3.42 0 0 1 0-4.4 3.65 3.65 0 0 1 2.7-.8m-2.9 8.9h6v22.2h-6zM110.5 47.11l3.3-13.7h5.9l-6.6 22.2h-5.4l-3.8-13.4-3.8 13.4h-5.6l-6.7-22.2H94l3.3 13.8 3.7-12.8h5.9l3.6 12.7zM86 39.31a8.39 8.39 0 0 0-1.7-3.4 7.93 7.93 0 0 0-3.1-2.2 16.63 16.63 0 0 0-5.4-.8 14.72 14.72 0 0 0-5.5.9 7.26 7.26 0 0 0-3.1 2.2 9.06 9.06 0 0 0-1.7 3.4 17.71 17.71 0 0 0-.6 4.2v1.8a14.21 14.21 0 0 0 .6 4.2 8.39 8.39 0 0 0 1.7 3.4 7 7 0 0 0 3.1 2.2 17.07 17.07 0 0 0 5.5.9 14.72 14.72 0 0 0 5.5-.9 7.43 7.43 0 0 0 3.1-2.3 8.22 8.22 0 0 0 1.6-3.4 18.49 18.49 0 0 0 .6-4.2v-1.8a20.26 20.26 0 0 0-.6-4.2m-5.3 6.4a8.64 8.64 0 0 1-1.1 4.9c-.7 1-2 1.4-3.8 1.4a8 8 0 0 1-2.3-.3 3.91 3.91 0 0 1-1.6-1 4.8 4.8 0 0 1-.9-1.9 13 13 0 0 1-.3-3.1v-2.5a8.64 8.64 0 0 1 1.1-4.9c.8-1 2-1.4 3.9-1.4a4.62 4.62 0 0 1 3.8 1.4 8.64 8.64 0 0 1 1.1 4.9l.1 2.5zM218.4 8.41l9.3-7.4-5.7-.9c-4.8-.7-7.3 2-10.7 4.5l-11.6 9.1 1.5.8.7.4a10 10 0 0 0 9.7-1.1l4.9-3.9 1.9-1.5zM235.5 4.61a10.16 10.16 0 0 0-7.9 1.8s-2.7 2-4.6 3.5l-4.4 3.5-.6.4-9.6 7.7 3.1 1.6a10 10 0 0 0 9.7-1.1l9-7.2 7.3-5.7 4.3-3.4zM255.4 11.01l-6.7-1.2c-4-.7-5.9.6-9.8 3.6-.3.3-10 8.1-10 8.1l-.3.3-3.7 3-6.8 5.5 3.1 1.6a10.56 10.56 0 0 0 10-1l9.6-7.6.5-.4 10.7-8.9z"/></svg>